<svg width="28" height="28" viewBox="0 0 28 28" fill="none" xmlns="http://www.w3.org/2000/svg">
<path d="M16.3333 11.025H15.1667V9.85834C15.1667 9.54892 15.0438 9.25218 14.825 9.03338C14.6062 8.81459 14.3094 8.69168 14 8.69168C13.6906 8.69168 13.3938 8.81459 13.175 9.03338C12.9563 9.25218 12.8333 9.54892 12.8333 9.85834V11.025H11.6667C11.3572 11.025 11.0605 11.1479 10.8417 11.3667C10.6229 11.5855 10.5 11.8823 10.5 12.1917C10.5 12.5011 10.6229 12.7978 10.8417 13.0166C11.0605 13.2354 11.3572 13.3583 11.6667 13.3583H12.8333V14.525C12.8333 14.8344 12.9563 15.1312 13.175 15.35C13.3938 15.5688 13.6906 15.6917 14 15.6917C14.3094 15.6917 14.6062 15.5688 14.825 15.35C15.0438 15.1312 15.1667 14.8344 15.1667 14.525V13.3583H16.3333C16.6428 13.3583 16.9395 13.2354 17.1583 13.0166C17.3771 12.7978 17.5 12.5011 17.5 12.1917C17.5 11.8823 17.3771 11.5855 17.1583 11.3667C16.9395 11.1479 16.6428 11.025 16.3333 11.025ZM23.87 11.235C23.7188 9.65048 23.1883 8.12564 22.3235 6.78934C21.4587 5.45304 20.2849 4.34455 18.9013 3.55755C17.5177 2.77055 15.9651 2.32816 14.3745 2.26776C12.7839 2.20737 11.2021 2.53074 9.76288 3.21055C8.32362 3.89037 7.06915 4.90665 6.10548 6.17352C5.14181 7.44039 4.49726 8.92061 4.22629 10.4891C3.95532 12.0576 4.06589 13.6683 4.54867 15.185C5.03145 16.7018 5.87224 18.0801 7 19.2033L13.1833 25.3983C13.2918 25.5077 13.4208 25.5945 13.563 25.6537C13.7052 25.7129 13.8577 25.7434 14.0117 25.7434C14.1657 25.7434 14.3182 25.7129 14.4603 25.6537C14.6025 25.5945 14.7315 25.5077 14.84 25.3983L21 19.2033C22.0397 18.1714 22.8367 16.9209 23.3331 15.5427C23.8295 14.1644 24.0129 12.6929 23.87 11.235ZM19.3667 17.5583L14 22.925L8.63333 17.5583C7.84244 16.7674 7.2366 15.8111 6.85938 14.7581C6.48216 13.7051 6.34292 12.5816 6.45167 11.4683C6.56112 10.338 6.92039 9.24603 7.5035 8.27149C8.08661 7.29695 8.87898 6.46417 9.82333 5.83334C11.0611 5.01112 12.514 4.57252 14 4.57252C15.486 4.57252 16.9389 5.01112 18.1767 5.83334C19.1182 6.46173 19.9088 7.29084 20.4918 8.2611C21.0747 9.23137 21.4356 10.3187 21.5483 11.445C21.6606 12.562 21.5231 13.69 21.1458 14.7473C20.7685 15.8046 20.1608 16.7648 19.3667 17.5583Z" fill="#F8D84A"/>
</svg>
